Coordinates
version=1
nRows=11
nColumns=63
inDegrees=yes

Units are S.I. units (second, meters, Newtons, ...)
If the header above contains a line with 'inDegrees', this indicates whether rotational values are in degrees (yes) or radians (no).

endheader
time	pelvis_tilt	pelvis_list	pelvis_rotation	pelvis_tx	pelvis_ty	pelvis_tz	hip_flexion_r	hip_adduction_r	hip_rotation_r	knee_angle_r	knee_angle_r_beta	ankle_angle_r	subtalar_angle_r	mtp_angle_r	hip_flexion_l	hip_adduction_l	hip_rotation_l	knee_angle_l	knee_angle_l_beta	ankle_angle_l	subtalar_angle_l	mtp_angle_l	L5_S1_Flex_Ext	L5_S1_Lat_Bending	L5_S1_axial_rotation	L4_L5_Flex_Ext	L4_L5_Lat_Bending	L4_L5_axial_rotation	L3_L4_Flex_Ext	L3_L4_Lat_Bending	L3_L4_axial_rotation	L2_L3_Flex_Ext	L2_L3_Lat_Bending	L2_L3_axial_rotation	L1_L2_Flex_Ext	L1_L2_Lat_Bending	L1_L2_axial_rotation	L1_T12_Flex_Ext	L1_T12_Lat_Bending	L1_T12_axial_rotation	Abs_r3	Abs_r2	Abs_r1	Abs_t1	Abs_t2	neck_flexion	neck_bending	neck_rotation	arm_flex_r	arm_add_r	arm_rot_r	elbow_flex_r	pro_sup_r	wrist_flex_r	wrist_dev_r	arm_flex_l	arm_add_l	arm_rot_l	elbow_flex_l	pro_sup_l	wrist_flex_l	wrist_dev_l
6.610169	-8.086018	-5.268567	73.983651	0.360595	0.820962	0.713983	17.532171	-3.952632	9.646956	4.824318	0.084200	30.501684	4.985050	0.000000	13.150530	1.464424	-7.264389	0.711714	0.012422	31.277958	5.176020	0.000000	0.134939	-0.363940	3.500970	0.250595	-0.484041	3.719780	0.221691	-0.884885	3.719780	0.154222	-0.884885	3.063348	0.125304	-0.742147	2.844538	0.077104	-0.563744	2.625727	0.963855	-4.116967	19.471343	0.000000	0.000000	8.675180	12.854249	-21.689637	9.167816	-24.730383	-2.591002	134.952585	71.897018	-12.125530	29.218952	33.105881	-21.450146	23.734258	125.067810	57.391875	-5.591382	33.478971
6.627119	-8.279660	-5.448604	73.695931	0.362890	0.820470	0.714412	17.710357	-3.844120	11.448940	4.459936	0.077841	30.005576	3.081460	0.000000	13.287802	1.456263	-7.117703	0.576486	0.010062	30.936757	4.343514	0.000000	0.138057	-0.402837	3.623621	0.256386	-0.535773	3.850097	0.226814	-0.979458	3.850097	0.157785	-0.979458	3.170668	0.128200	-0.821465	2.944192	0.078886	-0.623995	2.717716	0.986128	-4.556973	20.153492	0.000000	0.000000	9.748605	12.703420	-22.736001	9.727990	-25.017977	-3.531619	134.921903	71.537286	-11.100305	28.776785	35.926461	-21.775916	25.512762	124.489547	57.064378	-8.574336	33.548802
6.644068	-8.393769	-5.589323	73.536419	0.365042	0.819968	0.714898	17.767194	-3.711373	13.153131	4.063625	0.070924	29.453554	1.180631	0.000000	13.368501	1.397063	-7.203646	0.510327	0.008907	30.551015	3.808304	0.000000	0.139673	-0.438408	3.664125	0.259386	-0.583083	3.893133	0.229468	-1.065945	3.893133	0.159632	-1.065945	3.206110	0.129700	-0.894002	2.977102	0.079809	-0.679094	2.748094	0.997669	-4.959359	20.378766	0.000000	0.000000	10.989012	12.477128	-23.248962	11.039904	-25.448498	-4.092082	134.854438	70.982336	-9.959756	28.069388	39.002006	-22.246347	26.980189	124.185820	57.761195	-11.015176	33.409156
6.661017	-8.474764	-5.659195	73.483623	0.367095	0.819494	0.715428	17.693007	-3.604059	14.859253	3.663745	0.063944	28.859859	-0.817925	0.000000	13.368671	1.338604	-7.481715	0.503989	0.008796	30.123483	3.519333	0.000000	0.136780	-0.477090	3.648645	0.254014	-0.634529	3.876685	0.224716	-1.159995	3.876685	0.156326	-1.159995	3.192564	0.127014	-0.972881	2.964524	0.078156	-0.739012	2.736484	0.977005	-5.396932	20.292668	0.000000	0.000000	12.317108	12.213576	-23.282635	12.846911	-26.062865	-4.392754	134.856441	71.071043	-8.601346	27.280764	42.067560	-22.649978	27.852937	123.972593	60.506153	-10.749315	33.208664
6.677966	-8.501880	-5.677444	73.543832	0.369016	0.819046	0.715930	17.508402	-3.503453	16.380138	3.278270	0.057217	28.279785	-2.680985	0.000000	13.305529	1.257776	-7.953299	0.551613	0.009627	29.694456	3.538238	0.000000	0.131511	-0.516714	3.595965	0.244228	-0.687229	3.820713	0.216059	-1.256338	3.820713	0.150303	-1.256338	3.146469	0.122121	-1.053683	2.921722	0.075145	-0.800390	2.696974	0.939367	-5.845170	19.999679	0.000000	0.000000	13.627993	11.900585	-22.995229	14.821559	-26.857027	-4.559701	134.991998	71.416173	-7.092019	26.508234	45.021533	-23.015306	28.802031	124.039990	63.558224	-10.901121	33.037563
6.694915	-8.462540	-5.670521	73.745862	0.370732	0.818637	0.716328	17.242690	-3.401159	17.624522	2.925319	0.051056	27.746426	-4.329647	0.000000	13.212935	1.146586	-8.554325	0.654263	0.011419	29.288361	3.856028	0.000000	0.126132	-0.553622	3.513899	0.234240	-0.736317	3.733517	0.207223	-1.346076	3.733517	0.144157	-1.346076	3.074661	0.117126	-1.128945	2.855043	0.072072	-0.857560	2.635424	0.900950	-6.262678	19.543251	0.000000	0.000000	14.811350	11.540588	-22.418888	16.693722	-27.772257	-4.668974	135.253551	71.990393	-5.353097	25.891913	47.556711	-23.219040	29.704298	124.334580	66.368137	-11.288569	32.955672
6.711864	-8.377953	-5.648179	74.046529	0.372293	0.818275	0.716575	16.930157	-3.302767	18.601850	2.633515	0.045964	27.292244	-5.714929	0.000000	13.100658	1.017615	-9.265565	0.794988	0.013875	28.921617	4.426325	0.000000	0.119443	-0.588487	3.417681	0.221817	-0.782688	3.631287	0.196233	-1.430847	3.631287	0.136511	-1.430847	2.990471	0.110915	-1.200043	2.776866	0.068250	-0.911566	2.563261	0.853168	-6.657082	19.008119	0.000000	0.000000	15.793464	11.151912	-21.601941	18.233267	-28.720005	-4.725925	135.616838	72.789243	-3.501548	25.389338	49.440344	-23.225025	30.512038	124.797410	68.646383	-11.968665	32.973586
6.728814	-8.261699	-5.647336	74.425063	0.373685	0.817921	0.716609	16.621019	-3.205716	19.361841	2.423862	0.042304	26.918633	-6.892058	0.000000	13.013158	0.871267	-10.117175	0.975734	0.017030	28.639115	5.298049	0.000000	0.114679	-0.618799	3.307462	0.212971	-0.823003	3.514178	0.188406	-1.504548	3.514178	0.131067	-1.504548	2.894029	0.106491	-1.261855	2.687313	0.065528	-0.958519	2.480597	0.819142	-6.999977	18.395112	0.000000	0.000000	16.453019	10.716701	-20.469603	19.286544	-29.647838	-4.605823	136.057172	73.686346	-1.973043	24.988290	50.470703	-23.025618	31.174993	125.477455	70.056929	-13.623924	33.033941
6.745763	-8.117810	-5.681671	74.905452	0.374894	0.817533	0.716454	16.342484	-3.110800	19.854552	2.306970	0.040264	26.665784	-7.824399	0.000000	12.977165	0.719229	-10.902183	1.186287	0.020705	28.446111	6.261933	0.000000	0.109281	-0.645734	3.203931	0.202946	-0.858826	3.404177	0.179538	-1.570037	3.404177	0.124898	-1.570037	2.803440	0.101479	-1.316781	2.603194	0.062443	-1.000242	2.402948	0.780585	-7.304671	17.819303	0.000000	0.000000	16.825127	10.177397	-19.339454	19.637504	-30.508737	-4.571490	136.577920	74.665436	-0.312376	24.764922	50.709549	-22.630919	31.836857	126.176735	69.980568	-16.184288	33.128411
6.762712	-7.947964	-5.760301	75.486261	0.375898	0.817087	0.716136	16.120349	-3.018927	19.946490	2.294132	0.040040	26.565443	-8.345630	0.000000	13.013533	0.562413	-11.618973	1.425017	0.024871	28.386359	7.343921	0.000000	0.103239	-0.667153	3.107174	0.191725	-0.887313	3.301372	0.169611	-1.622115	3.301372	0.117992	-1.622115	2.718777	0.095868	-1.360457	2.524579	0.058991	-1.033419	2.330380	0.737426	-7.546963	17.281168	0.000000	0.000000	16.870475	9.473865	-18.206827	19.321568	-31.292554	-4.579650	137.116135	75.452769	1.488339	24.755008	50.132853	-22.035088	32.369353	126.799091	69.496184	-19.102264	33.244280
6.779661	-7.764694	-5.880532	76.146309	0.376750	0.816569	0.715712	15.966251	-2.930336	19.658383	2.370903	0.041380	26.621249	-8.469109	0.000000	13.128996	0.408253	-12.224951	1.682561	0.029366	28.476189	8.488751	0.000000	0.096463	-0.684876	3.028434	0.179141	-0.910885	3.217711	0.158479	-1.665207	3.217711	0.110247	-1.665207	2.649880	0.089575	-1.396599	2.460602	0.055119	-1.060872	2.271325	0.689024	-7.747451	16.843240	0.000000	0.000000	16.581408	8.553762	-17.179534	18.382918	-31.982153	-4.705151	137.644166	75.961137	3.550560	24.987897	48.860373	-21.231798	32.738660	127.230517	69.100729	-21.805051	33.360679
